<svg width="24" height="23" viewBox="0 0 24 23" fill="none" xmlns="http://www.w3.org/2000/svg">
<g filter="url(#filter0_d_14_162)">
<path fill-rule="evenodd" clip-rule="evenodd" d="M16.5284 5C16.5097 4.9193 16.4903 4.83842 16.47 4.75746C16.206 3.70138 15.7903 2.55383 15.1124 1.65C14.4134 0.71802 13.3928 0 11.9999 0C10.607 0 9.58642 0.71802 8.88743 1.65C8.20956 2.55383 7.79381 3.70138 7.52979 4.75747C7.50955 4.83842 7.4901 4.9193 7.47139 5H5.87104C4.29165 5 2.98275 6.22455 2.87769 7.80044L2.14435 18.8004C2.02892 20.532 3.40232 22 5.13771 22H18.8621C20.5975 22 21.9709 20.532 21.8555 18.8004L21.1221 7.80044C21.0171 6.22455 19.7082 5 18.1288 5H16.5284ZM7.47139 13.5C8.04437 13.5 8.998 9.5684 8.99995 8.99817C9.0001 8.97438 9.00038 8.9506 9.00078 8.92682C9.00166 8.87413 9.00345 8.79455 9.00712 8.69194C9.01445 8.48652 9.02924 8.18999 9.05899 7.83304C9.08009 7.57976 9.10852 7.29862 9.14668 7H14.8532C14.8913 7.29862 14.9197 7.57976 14.9409 7.83305C14.9706 8.18999 14.9854 8.48652 14.9927 8.69194C14.9964 8.79455 14.9982 8.87413 14.9991 8.92682C14.9995 8.95134 14.9998 8.97587 14.9999 9.0004C14.9999 9.0004 15.47 13.5 16.47 13.5C17.47 13.5 16.9999 8.99866 16.9999 8.99866C16.9998 8.9636 16.9994 8.92854 16.9988 8.89349C16.9977 8.829 16.9956 8.7367 16.9914 8.62056C16.9832 8.38848 16.9667 8.06001 16.9339 7.66695C16.9169 7.46202 16.8952 7.23812 16.8678 7H18.1288C18.6553 7 19.0916 7.40818 19.1266 7.93348L19.8599 18.9335C19.8984 19.5107 19.4406 20 18.8621 20H5.13771C4.55925 20 4.10145 19.5107 4.13992 18.9335L4.87326 7.93348C4.90828 7.40818 5.34458 7 5.87104 7H7.13202C7.10459 7.23812 7.08297 7.46202 7.06589 7.66696C7.03314 8.06001 7.01668 8.38848 7.00839 8.62056C7.00424 8.7367 7.00213 8.829 7.00106 8.89349C7.00048 8.92785 7.00005 8.96221 6.99994 8.99658C6.99918 9.5672 6.89972 13.5 7.47139 13.5ZM9.53346 5H14.4664C14.2352 4.15322 13.9209 3.39466 13.5124 2.85C13.0864 2.28198 12.607 2 11.9999 2C11.3928 2 10.9134 2.28198 10.4874 2.85C10.0789 3.39466 9.76466 4.15322 9.53346 5Z" fill="#0F0F0F"/>
</g>
<defs>
<filter id="filter0_d_14_162" x="-1.86243" y="0" width="27.7247" height="30" filterUnits="userSpaceOnUse" color-interpolation-filters="sRGB">
<feFlood flood-opacity="0" result="BackgroundImageFix"/>
<feColorMatrix in="SourceAlpha" type="matrix" values="0 0 0 0 0 0 0 0 0 0 0 0 0 0 0 0 0 0 127 0" result="hardAlpha"/>
<feOffset dy="4"/>
<feGaussianBlur stdDeviation="2"/>
<feComposite in2="hardAlpha" operator="out"/>
<feColorMatrix type="matrix" values="0 0 0 0 0 0 0 0 0 0 0 0 0 0 0 0 0 0 0.25 0"/>
<feBlend mode="normal" in2="BackgroundImageFix" result="effect1_dropShadow_14_162"/>
<feBlend mode="normal" in="SourceGraphic" in2="effect1_dropShadow_14_162" result="shape"/>
</filter>
</defs>
</svg>
